<mxfile host="app.diagrams.net" modified="2024-06-02T18:35:58.904Z" agent="Mozilla/5.0 (Windows NT 10.0; Win64; x64) AppleWebKit/537.36 (KHTML, like Gecko) Chrome/125.0.0.0 Safari/537.36" etag="ACasWn__mT686hDigZon" version="24.4.13" type="google">
  <diagram name="Сторінка-1" id="ic3oKJjQ8ABnXzsJ7Ula">
    <mxGraphModel grid="1" page="1" gridSize="10" guides="1" tooltips="1" connect="1" arrows="1" fold="1" pageScale="1" pageWidth="827" pageHeight="1169" math="0" shadow="0">
      <root>
        <mxCell id="0" />
        <mxCell id="1" parent="0" />
        <mxCell id="3iRw8vZDGY9ZDP3LKKR4-2" style="edgeStyle=orthogonalEdgeStyle;rounded=0;orthogonalLoop=1;jettySize=auto;html=1;exitX=0.5;exitY=1;exitDx=0;exitDy=0;" edge="1" parent="1" source="3iRw8vZDGY9ZDP3LKKR4-1">
          <mxGeometry relative="1" as="geometry">
            <mxPoint x="414" y="140" as="targetPoint" />
          </mxGeometry>
        </mxCell>
        <mxCell id="3iRw8vZDGY9ZDP3LKKR4-1" value="User authorization" style="ellipse;whiteSpace=wrap;html=1;" vertex="1" parent="1">
          <mxGeometry x="354" width="120" height="80" as="geometry" />
        </mxCell>
        <mxCell id="3iRw8vZDGY9ZDP3LKKR4-3" value="Enter the name of the product in the &quot;search&quot; field" style="text;html=1;align=center;verticalAlign=middle;resizable=0;points=[];autosize=1;strokeColor=none;fillColor=none;" vertex="1" parent="1">
          <mxGeometry x="410" y="90" width="290" height="30" as="geometry" />
        </mxCell>
        <mxCell id="3iRw8vZDGY9ZDP3LKKR4-7" style="edgeStyle=orthogonalEdgeStyle;rounded=0;orthogonalLoop=1;jettySize=auto;html=1;exitX=0.5;exitY=1;exitDx=0;exitDy=0;entryX=0.5;entryY=0;entryDx=0;entryDy=0;" edge="1" parent="1" source="3iRw8vZDGY9ZDP3LKKR4-5" target="3iRw8vZDGY9ZDP3LKKR4-6">
          <mxGeometry relative="1" as="geometry" />
        </mxCell>
        <mxCell id="3iRw8vZDGY9ZDP3LKKR4-5" value="The user sees the search results" style="ellipse;whiteSpace=wrap;html=1;" vertex="1" parent="1">
          <mxGeometry x="354" y="140" width="120" height="80" as="geometry" />
        </mxCell>
        <mxCell id="3iRw8vZDGY9ZDP3LKKR4-6" value="Is the product available for order?" style="rhombus;whiteSpace=wrap;html=1;" vertex="1" parent="1">
          <mxGeometry x="280" y="240" width="280" height="100" as="geometry" />
        </mxCell>
        <mxCell id="3iRw8vZDGY9ZDP3LKKR4-9" value="End - the buyer cannot purchase the product" style="ellipse;whiteSpace=wrap;html=1;" vertex="1" parent="1">
          <mxGeometry x="160" y="370" width="140" height="80" as="geometry" />
        </mxCell>
        <mxCell id="3iRw8vZDGY9ZDP3LKKR4-11" style="edgeStyle=orthogonalEdgeStyle;rounded=0;orthogonalLoop=1;jettySize=auto;html=1;exitX=0.5;exitY=1;exitDx=0;exitDy=0;entryX=0.717;entryY=0.04;entryDx=0;entryDy=0;entryPerimeter=0;" edge="1" parent="1" source="3iRw8vZDGY9ZDP3LKKR4-6" target="3iRw8vZDGY9ZDP3LKKR4-9">
          <mxGeometry relative="1" as="geometry" />
        </mxCell>
        <mxCell id="3iRw8vZDGY9ZDP3LKKR4-12" value="Ні" style="text;html=1;align=center;verticalAlign=middle;resizable=0;points=[];autosize=1;strokeColor=none;fillColor=none;" vertex="1" parent="1">
          <mxGeometry x="300" y="330" width="30" height="30" as="geometry" />
        </mxCell>
        <mxCell id="3iRw8vZDGY9ZDP3LKKR4-19" style="edgeStyle=orthogonalEdgeStyle;rounded=0;orthogonalLoop=1;jettySize=auto;html=1;exitX=0.5;exitY=1;exitDx=0;exitDy=0;entryX=0.5;entryY=0;entryDx=0;entryDy=0;" edge="1" parent="1" source="3iRw8vZDGY9ZDP3LKKR4-13" target="3iRw8vZDGY9ZDP3LKKR4-18">
          <mxGeometry relative="1" as="geometry" />
        </mxCell>
        <mxCell id="3iRw8vZDGY9ZDP3LKKR4-13" value="The product has been added to the cart" style="ellipse;whiteSpace=wrap;html=1;" vertex="1" parent="1">
          <mxGeometry x="550" y="370" width="120" height="80" as="geometry" />
        </mxCell>
        <mxCell id="3iRw8vZDGY9ZDP3LKKR4-15" style="edgeStyle=orthogonalEdgeStyle;rounded=0;orthogonalLoop=1;jettySize=auto;html=1;exitX=0.5;exitY=1;exitDx=0;exitDy=0;entryX=0.207;entryY=0.05;entryDx=0;entryDy=0;entryPerimeter=0;" edge="1" parent="1" source="3iRw8vZDGY9ZDP3LKKR4-6" target="3iRw8vZDGY9ZDP3LKKR4-13">
          <mxGeometry relative="1" as="geometry" />
        </mxCell>
        <mxCell id="3iRw8vZDGY9ZDP3LKKR4-16" value="Так" style="text;html=1;align=center;verticalAlign=middle;resizable=0;points=[];autosize=1;strokeColor=none;fillColor=none;" vertex="1" parent="1">
          <mxGeometry x="504" y="330" width="40" height="30" as="geometry" />
        </mxCell>
        <mxCell id="3iRw8vZDGY9ZDP3LKKR4-22" style="edgeStyle=orthogonalEdgeStyle;rounded=0;orthogonalLoop=1;jettySize=auto;html=1;exitX=0.5;exitY=1;exitDx=0;exitDy=0;entryX=0.5;entryY=0;entryDx=0;entryDy=0;" edge="1" parent="1" source="3iRw8vZDGY9ZDP3LKKR4-18">
          <mxGeometry relative="1" as="geometry">
            <mxPoint x="610" y="600" as="targetPoint" />
          </mxGeometry>
        </mxCell>
        <mxCell id="3iRw8vZDGY9ZDP3LKKR4-18" value="The basket is open, the product is in it" style="ellipse;whiteSpace=wrap;html=1;" vertex="1" parent="1">
          <mxGeometry x="550" y="490" width="120" height="80" as="geometry" />
        </mxCell>
        <mxCell id="3iRw8vZDGY9ZDP3LKKR4-20" value="Open shopping cart" style="text;html=1;align=center;verticalAlign=middle;resizable=0;points=[];autosize=1;strokeColor=none;fillColor=none;" vertex="1" parent="1">
          <mxGeometry x="610" y="458" width="130" height="30" as="geometry" />
        </mxCell>
        <mxCell id="3iRw8vZDGY9ZDP3LKKR4-23" value="Go to checkout" style="text;html=1;align=center;verticalAlign=middle;resizable=0;points=[];autosize=1;strokeColor=none;fillColor=none;" vertex="1" parent="1">
          <mxGeometry x="620" y="570" width="100" height="30" as="geometry" />
        </mxCell>
        <mxCell id="3iRw8vZDGY9ZDP3LKKR4-30" style="edgeStyle=orthogonalEdgeStyle;rounded=0;orthogonalLoop=1;jettySize=auto;html=1;exitX=0;exitY=0.5;exitDx=0;exitDy=0;entryX=0.5;entryY=0;entryDx=0;entryDy=0;" edge="1" parent="1" source="3iRw8vZDGY9ZDP3LKKR4-28" target="3iRw8vZDGY9ZDP3LKKR4-29">
          <mxGeometry relative="1" as="geometry" />
        </mxCell>
        <mxCell id="3iRw8vZDGY9ZDP3LKKR4-31" value="Yes" style="edgeLabel;html=1;align=center;verticalAlign=middle;resizable=0;points=[];" connectable="0" vertex="1" parent="3iRw8vZDGY9ZDP3LKKR4-30">
          <mxGeometry x="-0.0168" y="-8" relative="1" as="geometry">
            <mxPoint as="offset" />
          </mxGeometry>
        </mxCell>
        <mxCell id="3iRw8vZDGY9ZDP3LKKR4-37" style="edgeStyle=orthogonalEdgeStyle;rounded=0;orthogonalLoop=1;jettySize=auto;html=1;exitX=1;exitY=0.5;exitDx=0;exitDy=0;entryX=0.5;entryY=0;entryDx=0;entryDy=0;" edge="1" parent="1" source="3iRw8vZDGY9ZDP3LKKR4-28" target="3iRw8vZDGY9ZDP3LKKR4-36">
          <mxGeometry relative="1" as="geometry" />
        </mxCell>
        <mxCell id="3iRw8vZDGY9ZDP3LKKR4-28" value="Are the conditions for free shipping fulfilled?" style="rhombus;whiteSpace=wrap;html=1;" vertex="1" parent="1">
          <mxGeometry x="470" y="600" width="290" height="130" as="geometry" />
        </mxCell>
        <mxCell id="3iRw8vZDGY9ZDP3LKKR4-34" style="edgeStyle=orthogonalEdgeStyle;rounded=0;orthogonalLoop=1;jettySize=auto;html=1;exitX=0.5;exitY=1;exitDx=0;exitDy=0;entryX=0.5;entryY=0;entryDx=0;entryDy=0;" edge="1" parent="1" source="3iRw8vZDGY9ZDP3LKKR4-29" target="3iRw8vZDGY9ZDP3LKKR4-33">
          <mxGeometry relative="1" as="geometry" />
        </mxCell>
        <mxCell id="3iRw8vZDGY9ZDP3LKKR4-29" value="Entering personal data" style="ellipse;whiteSpace=wrap;html=1;" vertex="1" parent="1">
          <mxGeometry x="310" y="720" width="120" height="90" as="geometry" />
        </mxCell>
        <mxCell id="3iRw8vZDGY9ZDP3LKKR4-33" value="The end - the product is ordered" style="ellipse;whiteSpace=wrap;html=1;" vertex="1" parent="1">
          <mxGeometry x="310" y="850" width="120" height="80" as="geometry" />
        </mxCell>
        <mxCell id="3iRw8vZDGY9ZDP3LKKR4-35" value="Order confirmation" style="text;html=1;align=center;verticalAlign=middle;resizable=0;points=[];autosize=1;strokeColor=none;fillColor=none;" vertex="1" parent="1">
          <mxGeometry x="220" y="810" width="120" height="30" as="geometry" />
        </mxCell>
        <mxCell id="3iRw8vZDGY9ZDP3LKKR4-40" style="edgeStyle=orthogonalEdgeStyle;rounded=0;orthogonalLoop=1;jettySize=auto;html=1;exitX=0.5;exitY=1;exitDx=0;exitDy=0;entryX=0.5;entryY=0;entryDx=0;entryDy=0;" edge="1" parent="1" source="3iRw8vZDGY9ZDP3LKKR4-36" target="3iRw8vZDGY9ZDP3LKKR4-39">
          <mxGeometry relative="1" as="geometry" />
        </mxCell>
        <mxCell id="3iRw8vZDGY9ZDP3LKKR4-36" value="Entering personal data" style="ellipse;whiteSpace=wrap;html=1;" vertex="1" parent="1">
          <mxGeometry x="780" y="720" width="120" height="80" as="geometry" />
        </mxCell>
        <mxCell id="3iRw8vZDGY9ZDP3LKKR4-38" value="No" style="text;html=1;align=center;verticalAlign=middle;resizable=0;points=[];autosize=1;strokeColor=none;fillColor=none;" vertex="1" parent="1">
          <mxGeometry x="780" y="638" width="40" height="30" as="geometry" />
        </mxCell>
        <mxCell id="3iRw8vZDGY9ZDP3LKKR4-42" style="edgeStyle=orthogonalEdgeStyle;rounded=0;orthogonalLoop=1;jettySize=auto;html=1;exitX=0.5;exitY=1;exitDx=0;exitDy=0;entryX=0.5;entryY=0;entryDx=0;entryDy=0;" edge="1" parent="1" source="3iRw8vZDGY9ZDP3LKKR4-39" target="3iRw8vZDGY9ZDP3LKKR4-41">
          <mxGeometry relative="1" as="geometry" />
        </mxCell>
        <mxCell id="3iRw8vZDGY9ZDP3LKKR4-39" value="Calculation of the cost of delivery" style="ellipse;whiteSpace=wrap;html=1;" vertex="1" parent="1">
          <mxGeometry x="780" y="830" width="120" height="80" as="geometry" />
        </mxCell>
        <mxCell id="3iRw8vZDGY9ZDP3LKKR4-41" value="The end - the product is ordered" style="ellipse;whiteSpace=wrap;html=1;" vertex="1" parent="1">
          <mxGeometry x="780" y="940" width="120" height="80" as="geometry" />
        </mxCell>
        <mxCell id="3iRw8vZDGY9ZDP3LKKR4-44" value="Order confirmation" style="text;html=1;align=center;verticalAlign=middle;resizable=0;points=[];autosize=1;strokeColor=none;fillColor=none;" vertex="1" parent="1">
          <mxGeometry x="850" y="910" width="120" height="30" as="geometry" />
        </mxCell>
      </root>
    </mxGraphModel>
  </diagram>
</mxfile>
